{
	"asset":{
		"generator":"Khronos glTF Blender I/O v4.0.44",
		"version":"2.0"
	},
	"scene":0,
	"scenes":[
		{
			"name":"Scene",
			"nodes":[
				0
			]
		}
	],
	"nodes":[
		{
			"mesh":0,
			"name":"Cube.001-col",
			"scale":[
				10.920001029968262,
				0.6000000238418579,
				10.920001029968262
			],
			"translation":[
				0,
				1,
				0
			]
		}
	],
	"materials":[
		{
			"doubleSided":true,
			"name":"grass",
			"pbrMetallicRoughness":{
				"baseColorFactor":[
					0.800000011920929,
					0.800000011920929,
					0.800000011920929,
					1
				],
				"metallicFactor":0,
				"roughnessFactor":0.5
			}
		},
		{
			"doubleSided":true,
			"name":"dirt",
			"pbrMetallicRoughness":{
				"baseColorFactor":[
					0.800000011920929,
					0.800000011920929,
					0.800000011920929,
					1
				],
				"metallicFactor":0,
				"roughnessFactor":0.5
			}
		},
		{
			"doubleSided":true,
			"name":"stone",
			"pbrMetallicRoughness":{
				"baseColorFactor":[
					0.800000011920929,
					0.800000011920929,
					0.800000011920929,
					1
				],
				"metallicFactor":0,
				"roughnessFactor":0.5
			}
		}
	],
	"meshes":[
		{
			"name":"Cube.001",
			"primitives":[
				{
					"attributes":{
						"POSITION":0,
						"NORMAL":1,
						"TEXCOORD_0":2,
						"TANGENT":3
					},
					"indices":4,
					"material":0
				},
				{
					"attributes":{
						"POSITION":5,
						"NORMAL":6,
						"TEXCOORD_0":7,
						"TANGENT":8
					},
					"indices":9,
					"material":1
				},
				{
					"attributes":{
						"POSITION":10,
						"NORMAL":11,
						"TEXCOORD_0":12,
						"TANGENT":13
					},
					"indices":14,
					"material":2
				}
			]
		}
	],
	"accessors":[
		{
			"bufferView":0,
			"componentType":5126,
			"count":56,
			"max":[
				2.140488624572754,
				-0.9999980926513672,
				2.140488624572754
			],
			"min":[
				-2.140488624572754,
				-1,
				-2.140488624572754
			],
			"type":"VEC3"
		},
		{
			"bufferView":1,
			"componentType":5126,
			"count":56,
			"type":"VEC3"
		},
		{
			"bufferView":2,
			"componentType":5126,
			"count":56,
			"type":"VEC2"
		},
		{
			"bufferView":3,
			"componentType":5126,
			"count":56,
			"type":"VEC4"
		},
		{
			"bufferView":4,
			"componentType":5123,
			"count":150,
			"type":"SCALAR"
		},
		{
			"bufferView":5,
			"componentType":5126,
			"count":220,
			"max":[
				2.140488624572754,
				26.451019287109375,
				2.140488624572754
			],
			"min":[
				-2.140488624572754,
				-1,
				-3.646329164505005
			],
			"type":"VEC3"
		},
		{
			"bufferView":6,
			"componentType":5126,
			"count":220,
			"type":"VEC3"
		},
		{
			"bufferView":7,
			"componentType":5126,
			"count":220,
			"type":"VEC2"
		},
		{
			"bufferView":8,
			"componentType":5126,
			"count":220,
			"type":"VEC4"
		},
		{
			"bufferView":9,
			"componentType":5123,
			"count":558,
			"type":"SCALAR"
		},
		{
			"bufferView":10,
			"componentType":5126,
			"count":48,
			"max":[
				1.1670355796813965,
				0.6898295879364014,
				1.1670355796813965
			],
			"min":[
				-1.1670355796813965,
				-0.9999990463256836,
				-1.1670355796813965
			],
			"type":"VEC3"
		},
		{
			"bufferView":11,
			"componentType":5126,
			"count":48,
			"type":"VEC3"
		},
		{
			"bufferView":12,
			"componentType":5126,
			"count":48,
			"type":"VEC2"
		},
		{
			"bufferView":13,
			"componentType":5126,
			"count":48,
			"type":"VEC4"
		},
		{
			"bufferView":14,
			"componentType":5123,
			"count":72,
			"type":"SCALAR"
		}
	],
	"bufferViews":[
		{
			"buffer":0,
			"byteLength":672,
			"byteOffset":0,
			"target":34962
		},
		{
			"buffer":0,
			"byteLength":672,
			"byteOffset":672,
			"target":34962
		},
		{
			"buffer":0,
			"byteLength":448,
			"byteOffset":1344,
			"target":34962
		},
		{
			"buffer":0,
			"byteLength":896,
			"byteOffset":1792,
			"target":34962
		},
		{
			"buffer":0,
			"byteLength":300,
			"byteOffset":2688,
			"target":34963
		},
		{
			"buffer":0,
			"byteLength":2640,
			"byteOffset":2988,
			"target":34962
		},
		{
			"buffer":0,
			"byteLength":2640,
			"byteOffset":5628,
			"target":34962
		},
		{
			"buffer":0,
			"byteLength":1760,
			"byteOffset":8268,
			"target":34962
		},
		{
			"buffer":0,
			"byteLength":3520,
			"byteOffset":10028,
			"target":34962
		},
		{
			"buffer":0,
			"byteLength":1116,
			"byteOffset":13548,
			"target":34963
		},
		{
			"buffer":0,
			"byteLength":576,
			"byteOffset":14664,
			"target":34962
		},
		{
			"buffer":0,
			"byteLength":576,
			"byteOffset":15240,
			"target":34962
		},
		{
			"buffer":0,
			"byteLength":384,
			"byteOffset":15816,
			"target":34962
		},
		{
			"buffer":0,
			"byteLength":768,
			"byteOffset":16200,
			"target":34962
		},
		{
			"buffer":0,
			"byteLength":144,
			"byteOffset":16968,
			"target":34963
		}
	],
	"buffers":[
		{
			"byteLength":17112,
			"uri":"compare-c9e77e2417ef24e14d5faf519b812ce5.bin"
		}
	]
}
