{
	"asset":{
		"generator":"Khronos glTF Blender I/O v4.0.44",
		"version":"2.0"
	},
	"scene":0,
	"scenes":[
		{
			"name":"Scene",
			"nodes":[
				0,
				1,
				2,
				3
			]
		}
	],
	"nodes":[
		{
			"mesh":0,
			"name":"Cube.018-col",
			"scale":[
				15.402392387390137,
				0.7555575966835022,
				25.22534942626953
			],
			"translation":[
				-305.8089904785156,
				1.7652902603149414,
				470.8063659667969
			]
		},
		{
			"mesh":1,
			"name":"optimised.001",
			"rotation":[
				0,
				1,
				0,
				0
			],
			"scale":[
				21.72707176208496,
				1,
				42.593353271484375
			],
			"translation":[
				-311.7869567871094,
				2.0000972747802734,
				331.5548095703125
			]
		},
		{
			"mesh":2,
			"name":"Cube.002",
			"scale":[
				10.799954414367676,
				1,
				12.264853477478027
			],
			"translation":[
				-345.9354553222656,
				1.8823903799057007,
				303.6568908691406
			]
		},
		{
			"mesh":3,
			"name":"Cube.003",
			"scale":[
				15.813406944274902,
				1,
				20.095664978027344
			],
			"translation":[
				-273.3860778808594,
				3.1670985221862793,
				355.33648681640625
			]
		}
	],
	"materials":[
		{
			"doubleSided":true,
			"name":"grass",
			"pbrMetallicRoughness":{
				"baseColorFactor":[
					0.800000011920929,
					0.800000011920929,
					0.800000011920929,
					1
				],
				"metallicFactor":0,
				"roughnessFactor":0.5
			}
		},
		{
			"doubleSided":true,
			"name":"dirt",
			"pbrMetallicRoughness":{
				"baseColorFactor":[
					0.800000011920929,
					0.800000011920929,
					0.800000011920929,
					1
				],
				"metallicFactor":0,
				"roughnessFactor":0.5
			}
		}
	],
	"meshes":[
		{
			"name":"Cube.020",
			"primitives":[
				{
					"attributes":{
						"POSITION":0,
						"NORMAL":1,
						"TEXCOORD_0":2,
						"TANGENT":3
					},
					"indices":4,
					"material":0
				},
				{
					"attributes":{
						"POSITION":5,
						"NORMAL":6,
						"TEXCOORD_0":7,
						"TANGENT":8
					},
					"indices":9,
					"material":1
				}
			]
		},
		{
			"name":"Cube.025",
			"primitives":[
				{
					"attributes":{
						"POSITION":10,
						"NORMAL":11,
						"TEXCOORD_0":12,
						"TANGENT":13
					},
					"indices":14
				}
			]
		},
		{
			"name":"Cube.026",
			"primitives":[
				{
					"attributes":{
						"POSITION":15,
						"NORMAL":16,
						"TEXCOORD_0":17,
						"TANGENT":18
					},
					"indices":19
				}
			]
		},
		{
			"name":"Cube.027",
			"primitives":[
				{
					"attributes":{
						"POSITION":20,
						"NORMAL":21,
						"TEXCOORD_0":22
					},
					"indices":23
				}
			]
		}
	],
	"accessors":[
		{
			"bufferView":0,
			"componentType":5126,
			"count":526,
			"max":[
				5.711424827575684,
				45.159400939941406,
				2.358950138092041
			],
			"min":[
				-5.046760559082031,
				-14.456823348999023,
				-1
			],
			"type":"VEC3"
		},
		{
			"bufferView":1,
			"componentType":5126,
			"count":526,
			"type":"VEC3"
		},
		{
			"bufferView":2,
			"componentType":5126,
			"count":526,
			"type":"VEC2"
		},
		{
			"bufferView":3,
			"componentType":5126,
			"count":526,
			"type":"VEC4"
		},
		{
			"bufferView":4,
			"componentType":5123,
			"count":1098,
			"type":"SCALAR"
		},
		{
			"bufferView":5,
			"componentType":5126,
			"count":464,
			"max":[
				5.70565128326416,
				45.159400939941406,
				2.358950138092041
			],
			"min":[
				-5.040987014770508,
				-14.456823348999023,
				-1
			],
			"type":"VEC3"
		},
		{
			"bufferView":6,
			"componentType":5126,
			"count":464,
			"type":"VEC3"
		},
		{
			"bufferView":7,
			"componentType":5126,
			"count":464,
			"type":"VEC2"
		},
		{
			"bufferView":8,
			"componentType":5126,
			"count":464,
			"type":"VEC4"
		},
		{
			"bufferView":9,
			"componentType":5123,
			"count":870,
			"type":"SCALAR"
		},
		{
			"bufferView":10,
			"componentType":5126,
			"count":68,
			"max":[
				1.000000238418579,
				21.682743072509766,
				1
			],
			"min":[
				-4.311838150024414,
				-1,
				-1
			],
			"type":"VEC3"
		},
		{
			"bufferView":11,
			"componentType":5126,
			"count":68,
			"type":"VEC3"
		},
		{
			"bufferView":12,
			"componentType":5126,
			"count":68,
			"type":"VEC2"
		},
		{
			"bufferView":13,
			"componentType":5126,
			"count":68,
			"type":"VEC4"
		},
		{
			"bufferView":14,
			"componentType":5123,
			"count":180,
			"type":"SCALAR"
		},
		{
			"bufferView":15,
			"componentType":5126,
			"count":97,
			"max":[
				1,
				22.188650131225586,
				3.43503475189209
			],
			"min":[
				-3.46909761428833,
				-12.011922836303711,
				-1
			],
			"type":"VEC3"
		},
		{
			"bufferView":16,
			"componentType":5126,
			"count":97,
			"type":"VEC3"
		},
		{
			"bufferView":17,
			"componentType":5126,
			"count":97,
			"type":"VEC2"
		},
		{
			"bufferView":18,
			"componentType":5126,
			"count":97,
			"type":"VEC4"
		},
		{
			"bufferView":19,
			"componentType":5123,
			"count":240,
			"type":"SCALAR"
		},
		{
			"bufferView":20,
			"componentType":5126,
			"count":80,
			"max":[
				2.497152328491211,
				29.843639373779297,
				1
			],
			"min":[
				-1,
				-1,
				-1
			],
			"type":"VEC3"
		},
		{
			"bufferView":21,
			"componentType":5126,
			"count":80,
			"type":"VEC3"
		},
		{
			"bufferView":22,
			"componentType":5126,
			"count":80,
			"type":"VEC2"
		},
		{
			"bufferView":23,
			"componentType":5123,
			"count":231,
			"type":"SCALAR"
		}
	],
	"bufferViews":[
		{
			"buffer":0,
			"byteLength":6312,
			"byteOffset":0,
			"target":34962
		},
		{
			"buffer":0,
			"byteLength":6312,
			"byteOffset":6312,
			"target":34962
		},
		{
			"buffer":0,
			"byteLength":4208,
			"byteOffset":12624,
			"target":34962
		},
		{
			"buffer":0,
			"byteLength":8416,
			"byteOffset":16832,
			"target":34962
		},
		{
			"buffer":0,
			"byteLength":2196,
			"byteOffset":25248,
			"target":34963
		},
		{
			"buffer":0,
			"byteLength":5568,
			"byteOffset":27444,
			"target":34962
		},
		{
			"buffer":0,
			"byteLength":5568,
			"byteOffset":33012,
			"target":34962
		},
		{
			"buffer":0,
			"byteLength":3712,
			"byteOffset":38580,
			"target":34962
		},
		{
			"buffer":0,
			"byteLength":7424,
			"byteOffset":42292,
			"target":34962
		},
		{
			"buffer":0,
			"byteLength":1740,
			"byteOffset":49716,
			"target":34963
		},
		{
			"buffer":0,
			"byteLength":816,
			"byteOffset":51456,
			"target":34962
		},
		{
			"buffer":0,
			"byteLength":816,
			"byteOffset":52272,
			"target":34962
		},
		{
			"buffer":0,
			"byteLength":544,
			"byteOffset":53088,
			"target":34962
		},
		{
			"buffer":0,
			"byteLength":1088,
			"byteOffset":53632,
			"target":34962
		},
		{
			"buffer":0,
			"byteLength":360,
			"byteOffset":54720,
			"target":34963
		},
		{
			"buffer":0,
			"byteLength":1164,
			"byteOffset":55080,
			"target":34962
		},
		{
			"buffer":0,
			"byteLength":1164,
			"byteOffset":56244,
			"target":34962
		},
		{
			"buffer":0,
			"byteLength":776,
			"byteOffset":57408,
			"target":34962
		},
		{
			"buffer":0,
			"byteLength":1552,
			"byteOffset":58184,
			"target":34962
		},
		{
			"buffer":0,
			"byteLength":480,
			"byteOffset":59736,
			"target":34963
		},
		{
			"buffer":0,
			"byteLength":960,
			"byteOffset":60216,
			"target":34962
		},
		{
			"buffer":0,
			"byteLength":960,
			"byteOffset":61176,
			"target":34962
		},
		{
			"buffer":0,
			"byteLength":640,
			"byteOffset":62136,
			"target":34962
		},
		{
			"buffer":0,
			"byteLength":462,
			"byteOffset":62776,
			"target":34963
		}
	],
	"buffers":[
		{
			"byteLength":63240,
			"uri":"level_7-92aa40d6914a2afa85bb176e0575aeed.bin"
		}
	]
}
