{
	"asset":{
		"generator":"Khronos glTF Blender I/O v4.0.44",
		"version":"2.0"
	},
	"scene":0,
	"scenes":[
		{
			"name":"Scene",
			"nodes":[
				0
			]
		}
	],
	"nodes":[
		{
			"mesh":0,
			"name":"Cube.001-col",
			"scale":[
				10.920001029968262,
				0.6000000238418579,
				10.920001029968262
			],
			"translation":[
				0,
				1,
				0
			]
		}
	],
	"materials":[
		{
			"doubleSided":true,
			"name":"grass",
			"pbrMetallicRoughness":{
				"baseColorFactor":[
					0.800000011920929,
					0.800000011920929,
					0.800000011920929,
					1
				],
				"metallicFactor":0,
				"roughnessFactor":0.5
			}
		},
		{
			"doubleSided":true,
			"name":"dirt",
			"pbrMetallicRoughness":{
				"baseColorFactor":[
					0.800000011920929,
					0.800000011920929,
					0.800000011920929,
					1
				],
				"metallicFactor":0,
				"roughnessFactor":0.5
			}
		},
		{
			"doubleSided":true,
			"name":"stone",
			"pbrMetallicRoughness":{
				"baseColorFactor":[
					0.800000011920929,
					0.800000011920929,
					0.800000011920929,
					1
				],
				"metallicFactor":0,
				"roughnessFactor":0.5
			}
		}
	],
	"meshes":[
		{
			"name":"Cube.001",
			"primitives":[
				{
					"attributes":{
						"POSITION":0,
						"NORMAL":1,
						"TEXCOORD_0":2,
						"TANGENT":3
					},
					"indices":4,
					"material":0
				},
				{
					"attributes":{
						"POSITION":5,
						"NORMAL":6,
						"TEXCOORD_0":7,
						"TANGENT":8
					},
					"indices":9,
					"material":1
				},
				{
					"attributes":{
						"POSITION":10,
						"NORMAL":11,
						"TEXCOORD_0":12,
						"TANGENT":13
					},
					"indices":14,
					"material":2
				}
			]
		}
	],
	"accessors":[
		{
			"bufferView":0,
			"componentType":5126,
			"count":134,
			"max":[
				2.1504886150360107,
				9.34696102142334,
				2.1504886150360107
			],
			"min":[
				-2.1504886150360107,
				-1.0099999904632568,
				-3.6563291549682617
			],
			"type":"VEC3"
		},
		{
			"bufferView":1,
			"componentType":5126,
			"count":134,
			"type":"VEC3"
		},
		{
			"bufferView":2,
			"componentType":5126,
			"count":134,
			"type":"VEC2"
		},
		{
			"bufferView":3,
			"componentType":5126,
			"count":134,
			"type":"VEC4"
		},
		{
			"bufferView":4,
			"componentType":5123,
			"count":336,
			"type":"SCALAR"
		},
		{
			"bufferView":5,
			"componentType":5126,
			"count":559,
			"max":[
				2.1504886150360107,
				26.451019287109375,
				2.1504886150360107
			],
			"min":[
				-2.1504886150360107,
				-1.0099999904632568,
				-3.6563291549682617
			],
			"type":"VEC3"
		},
		{
			"bufferView":6,
			"componentType":5126,
			"count":559,
			"type":"VEC3"
		},
		{
			"bufferView":7,
			"componentType":5126,
			"count":559,
			"type":"VEC2"
		},
		{
			"bufferView":8,
			"componentType":5126,
			"count":559,
			"type":"VEC4"
		},
		{
			"bufferView":9,
			"componentType":5123,
			"count":1356,
			"type":"SCALAR"
		},
		{
			"bufferView":10,
			"componentType":5126,
			"count":96,
			"max":[
				1.1670455932617188,
				0.6998295783996582,
				1.1670455932617188
			],
			"min":[
				-1.1670455932617188,
				-1.0099990367889404,
				-1.1670455932617188
			],
			"type":"VEC3"
		},
		{
			"bufferView":11,
			"componentType":5126,
			"count":96,
			"type":"VEC3"
		},
		{
			"bufferView":12,
			"componentType":5126,
			"count":96,
			"type":"VEC2"
		},
		{
			"bufferView":13,
			"componentType":5126,
			"count":96,
			"type":"VEC4"
		},
		{
			"bufferView":14,
			"componentType":5123,
			"count":144,
			"type":"SCALAR"
		}
	],
	"bufferViews":[
		{
			"buffer":0,
			"byteLength":1608,
			"byteOffset":0,
			"target":34962
		},
		{
			"buffer":0,
			"byteLength":1608,
			"byteOffset":1608,
			"target":34962
		},
		{
			"buffer":0,
			"byteLength":1072,
			"byteOffset":3216,
			"target":34962
		},
		{
			"buffer":0,
			"byteLength":2144,
			"byteOffset":4288,
			"target":34962
		},
		{
			"buffer":0,
			"byteLength":672,
			"byteOffset":6432,
			"target":34963
		},
		{
			"buffer":0,
			"byteLength":6708,
			"byteOffset":7104,
			"target":34962
		},
		{
			"buffer":0,
			"byteLength":6708,
			"byteOffset":13812,
			"target":34962
		},
		{
			"buffer":0,
			"byteLength":4472,
			"byteOffset":20520,
			"target":34962
		},
		{
			"buffer":0,
			"byteLength":8944,
			"byteOffset":24992,
			"target":34962
		},
		{
			"buffer":0,
			"byteLength":2712,
			"byteOffset":33936,
			"target":34963
		},
		{
			"buffer":0,
			"byteLength":1152,
			"byteOffset":36648,
			"target":34962
		},
		{
			"buffer":0,
			"byteLength":1152,
			"byteOffset":37800,
			"target":34962
		},
		{
			"buffer":0,
			"byteLength":768,
			"byteOffset":38952,
			"target":34962
		},
		{
			"buffer":0,
			"byteLength":1536,
			"byteOffset":39720,
			"target":34962
		},
		{
			"buffer":0,
			"byteLength":288,
			"byteOffset":41256,
			"target":34963
		}
	],
	"buffers":[
		{
			"byteLength":41544,
			"uri":"level_3-f45445bea7696330e7b537fb62670263.bin"
		}
	]
}
