{
	"asset":{
		"generator":"Khronos glTF Blender I/O v4.0.44",
		"version":"2.0"
	},
	"scene":0,
	"scenes":[
		{
			"name":"Scene",
			"nodes":[
				0
			]
		}
	],
	"nodes":[
		{
			"mesh":0,
			"name":"Cube-col",
			"scale":[
				17.780290603637695,
				1,
				17.780290603637695
			],
			"translation":[
				93.93856048583984,
				1.4898135662078857,
				9.114912986755371
			]
		}
	],
	"materials":[
		{
			"doubleSided":true,
			"name":"grass",
			"pbrMetallicRoughness":{
				"baseColorFactor":[
					0.800000011920929,
					0.800000011920929,
					0.800000011920929,
					1
				],
				"metallicFactor":0,
				"roughnessFactor":0.5
			}
		},
		{
			"doubleSided":true,
			"name":"dirt",
			"pbrMetallicRoughness":{
				"baseColorFactor":[
					0.800000011920929,
					0.800000011920929,
					0.800000011920929,
					1
				],
				"metallicFactor":0,
				"roughnessFactor":0.5
			}
		}
	],
	"meshes":[
		{
			"name":"Cube.006",
			"primitives":[
				{
					"attributes":{
						"POSITION":0,
						"NORMAL":1,
						"TEXCOORD_0":2
					},
					"indices":3,
					"material":0
				},
				{
					"attributes":{
						"POSITION":4,
						"NORMAL":5,
						"TEXCOORD_0":6
					},
					"indices":7,
					"material":1
				}
			]
		}
	],
	"accessors":[
		{
			"bufferView":0,
			"componentType":5126,
			"count":744,
			"max":[
				3.078319549560547,
				28.219558715820312,
				6.781482219696045
			],
			"min":[
				-2.828678846359253,
				-36.05009460449219,
				-4.650910377502441
			],
			"type":"VEC3"
		},
		{
			"bufferView":1,
			"componentType":5126,
			"count":744,
			"type":"VEC3"
		},
		{
			"bufferView":2,
			"componentType":5126,
			"count":744,
			"type":"VEC2"
		},
		{
			"bufferView":3,
			"componentType":5123,
			"count":1866,
			"type":"SCALAR"
		},
		{
			"bufferView":4,
			"componentType":5126,
			"count":283,
			"max":[
				3.078319549560547,
				28.219558715820312,
				6.686344146728516
			],
			"min":[
				-2.7275261878967285,
				-34.85921096801758,
				-4.589451313018799
			],
			"type":"VEC3"
		},
		{
			"bufferView":5,
			"componentType":5126,
			"count":283,
			"type":"VEC3"
		},
		{
			"bufferView":6,
			"componentType":5126,
			"count":283,
			"type":"VEC2"
		},
		{
			"bufferView":7,
			"componentType":5123,
			"count":624,
			"type":"SCALAR"
		}
	],
	"bufferViews":[
		{
			"buffer":0,
			"byteLength":8928,
			"byteOffset":0,
			"target":34962
		},
		{
			"buffer":0,
			"byteLength":8928,
			"byteOffset":8928,
			"target":34962
		},
		{
			"buffer":0,
			"byteLength":5952,
			"byteOffset":17856,
			"target":34962
		},
		{
			"buffer":0,
			"byteLength":3732,
			"byteOffset":23808,
			"target":34963
		},
		{
			"buffer":0,
			"byteLength":3396,
			"byteOffset":27540,
			"target":34962
		},
		{
			"buffer":0,
			"byteLength":3396,
			"byteOffset":30936,
			"target":34962
		},
		{
			"buffer":0,
			"byteLength":2264,
			"byteOffset":34332,
			"target":34962
		},
		{
			"buffer":0,
			"byteLength":1248,
			"byteOffset":36596,
			"target":34963
		}
	],
	"buffers":[
		{
			"byteLength":37844,
			"uri":"level_6-6083e0dc7e74c2f873fb0fd4636c3347.bin"
		}
	]
}
