{
	"asset":{
		"generator":"Khronos glTF Blender I/O v4.0.44",
		"version":"2.0"
	},
	"scene":0,
	"scenes":[
		{
			"name":"Scene",
			"nodes":[
				0
			]
		}
	],
	"nodes":[
		{
			"mesh":0,
			"name":"Cube-col",
			"scale":[
				34.52473449707031,
				1,
				71.96710205078125
			],
			"translation":[
				0,
				1,
				0
			]
		}
	],
	"materials":[
		{
			"doubleSided":true,
			"name":"grass",
			"pbrMetallicRoughness":{
				"baseColorFactor":[
					0.800000011920929,
					0.800000011920929,
					0.800000011920929,
					1
				],
				"metallicFactor":0,
				"roughnessFactor":0.5
			}
		},
		{
			"doubleSided":true,
			"name":"dirt",
			"pbrMetallicRoughness":{
				"baseColorFactor":[
					0.800000011920929,
					0.800000011920929,
					0.800000011920929,
					1
				],
				"metallicFactor":0,
				"roughnessFactor":0.5
			}
		},
		{
			"doubleSided":true,
			"name":"rock",
			"pbrMetallicRoughness":{
				"baseColorFactor":[
					0.800000011920929,
					0.800000011920929,
					0.800000011920929,
					1
				],
				"metallicFactor":0,
				"roughnessFactor":0.5
			}
		}
	],
	"meshes":[
		{
			"name":"Cube",
			"primitives":[
				{
					"attributes":{
						"POSITION":0,
						"NORMAL":1,
						"TEXCOORD_0":2,
						"TANGENT":3
					},
					"indices":4,
					"material":0
				},
				{
					"attributes":{
						"POSITION":5,
						"NORMAL":6,
						"TEXCOORD_0":7,
						"TANGENT":8
					},
					"indices":9,
					"material":1
				},
				{
					"attributes":{
						"POSITION":10,
						"NORMAL":11,
						"TEXCOORD_0":12,
						"TANGENT":13
					},
					"indices":14,
					"material":2
				}
			]
		}
	],
	"accessors":[
		{
			"bufferView":0,
			"componentType":5126,
			"count":140,
			"max":[
				3.9984567165374756,
				-1,
				2.1046838760375977
			],
			"min":[
				-4.244437217712402,
				-1.0468000173568726,
				-1.945159673690796
			],
			"type":"VEC3"
		},
		{
			"bufferView":1,
			"componentType":5126,
			"count":140,
			"type":"VEC3"
		},
		{
			"bufferView":2,
			"componentType":5126,
			"count":140,
			"type":"VEC2"
		},
		{
			"bufferView":3,
			"componentType":5126,
			"count":140,
			"type":"VEC4"
		},
		{
			"bufferView":4,
			"componentType":5123,
			"count":300,
			"type":"SCALAR"
		},
		{
			"bufferView":5,
			"componentType":5126,
			"count":558,
			"max":[
				3.9984567165374756,
				27.263275146484375,
				2.1046838760375977
			],
			"min":[
				-4.244437217712402,
				-1.0468000173568726,
				-1.945159673690796
			],
			"type":"VEC3"
		},
		{
			"bufferView":6,
			"componentType":5126,
			"count":558,
			"type":"VEC3"
		},
		{
			"bufferView":7,
			"componentType":5126,
			"count":558,
			"type":"VEC2"
		},
		{
			"bufferView":8,
			"componentType":5126,
			"count":558,
			"type":"VEC4"
		},
		{
			"bufferView":9,
			"componentType":5123,
			"count":1272,
			"type":"SCALAR"
		},
		{
			"bufferView":10,
			"componentType":5126,
			"count":48,
			"max":[
				2.4862284660339355,
				0.4371345341205597,
				0.5638638138771057
			],
			"min":[
				-0.6209813356399536,
				-1.0468000173568726,
				-1.4844955205917358
			],
			"type":"VEC3"
		},
		{
			"bufferView":11,
			"componentType":5126,
			"count":48,
			"type":"VEC3"
		},
		{
			"bufferView":12,
			"componentType":5126,
			"count":48,
			"type":"VEC2"
		},
		{
			"bufferView":13,
			"componentType":5126,
			"count":48,
			"type":"VEC4"
		},
		{
			"bufferView":14,
			"componentType":5123,
			"count":72,
			"type":"SCALAR"
		}
	],
	"bufferViews":[
		{
			"buffer":0,
			"byteLength":1680,
			"byteOffset":0,
			"target":34962
		},
		{
			"buffer":0,
			"byteLength":1680,
			"byteOffset":1680,
			"target":34962
		},
		{
			"buffer":0,
			"byteLength":1120,
			"byteOffset":3360,
			"target":34962
		},
		{
			"buffer":0,
			"byteLength":2240,
			"byteOffset":4480,
			"target":34962
		},
		{
			"buffer":0,
			"byteLength":600,
			"byteOffset":6720,
			"target":34963
		},
		{
			"buffer":0,
			"byteLength":6696,
			"byteOffset":7320,
			"target":34962
		},
		{
			"buffer":0,
			"byteLength":6696,
			"byteOffset":14016,
			"target":34962
		},
		{
			"buffer":0,
			"byteLength":4464,
			"byteOffset":20712,
			"target":34962
		},
		{
			"buffer":0,
			"byteLength":8928,
			"byteOffset":25176,
			"target":34962
		},
		{
			"buffer":0,
			"byteLength":2544,
			"byteOffset":34104,
			"target":34963
		},
		{
			"buffer":0,
			"byteLength":576,
			"byteOffset":36648,
			"target":34962
		},
		{
			"buffer":0,
			"byteLength":576,
			"byteOffset":37224,
			"target":34962
		},
		{
			"buffer":0,
			"byteLength":384,
			"byteOffset":37800,
			"target":34962
		},
		{
			"buffer":0,
			"byteLength":768,
			"byteOffset":38184,
			"target":34962
		},
		{
			"buffer":0,
			"byteLength":144,
			"byteOffset":38952,
			"target":34963
		}
	],
	"buffers":[
		{
			"byteLength":39096,
			"uri":"level5-f66454d5779fdda473a59a90dbb9c944.bin"
		}
	]
}
