{
	"asset":{
		"generator":"Khronos glTF Blender I/O v4.0.44",
		"version":"2.0"
	},
	"scene":0,
	"scenes":[
		{
			"name":"Scene",
			"nodes":[
				0
			]
		}
	],
	"nodes":[
		{
			"mesh":0,
			"name":"level0-tutorial-col",
			"scale":[
				10.587120056152344,
				1,
				10.587120056152344
			],
			"translation":[
				0,
				1,
				0
			]
		}
	],
	"materials":[
		{
			"doubleSided":true,
			"name":"grass",
			"pbrMetallicRoughness":{
				"baseColorFactor":[
					0.800000011920929,
					0.800000011920929,
					0.800000011920929,
					1
				],
				"metallicFactor":0,
				"roughnessFactor":0.5
			}
		},
		{
			"doubleSided":true,
			"name":"stone",
			"pbrMetallicRoughness":{
				"baseColorFactor":[
					0.08593311160802841,
					0.05945192277431488,
					0.8000473976135254,
					1
				],
				"metallicFactor":0,
				"roughnessFactor":0.5
			}
		},
		{
			"doubleSided":true,
			"name":"dirt",
			"pbrMetallicRoughness":{
				"baseColorFactor":[
					0.800133466720581,
					0.13702833652496338,
					0.010494881309568882,
					1
				],
				"metallicFactor":0,
				"roughnessFactor":0.5
			}
		}
	],
	"meshes":[
		{
			"name":"Cube",
			"primitives":[
				{
					"attributes":{
						"POSITION":0,
						"NORMAL":1,
						"TEXCOORD_0":2,
						"TANGENT":3
					},
					"indices":4,
					"material":0
				},
				{
					"attributes":{
						"POSITION":5,
						"NORMAL":6,
						"TEXCOORD_0":7,
						"TANGENT":8
					},
					"indices":9,
					"material":1
				},
				{
					"attributes":{
						"POSITION":10,
						"NORMAL":11,
						"TEXCOORD_0":12,
						"TANGENT":13
					},
					"indices":14,
					"material":2
				}
			]
		}
	],
	"accessors":[
		{
			"bufferView":0,
			"componentType":5126,
			"count":159,
			"max":[
				1.0499999523162842,
				9.472723960876465,
				5.400112152099609
			],
			"min":[
				-1.0499999523162842,
				-1.0499999523162842,
				-3.1457431316375732
			],
			"type":"VEC3"
		},
		{
			"bufferView":1,
			"componentType":5126,
			"count":159,
			"type":"VEC3"
		},
		{
			"bufferView":2,
			"componentType":5126,
			"count":159,
			"type":"VEC2"
		},
		{
			"bufferView":3,
			"componentType":5126,
			"count":159,
			"type":"VEC4"
		},
		{
			"bufferView":4,
			"componentType":5123,
			"count":378,
			"type":"SCALAR"
		},
		{
			"bufferView":5,
			"componentType":5126,
			"count":12,
			"max":[
				0.07221131026744843,
				0.2567169666290283,
				-0.9999899864196777
			],
			"min":[
				-0.07221131026744843,
				-0.9999899864196777,
				-1.521972894668579
			],
			"type":"VEC3"
		},
		{
			"bufferView":6,
			"componentType":5126,
			"count":12,
			"type":"VEC3"
		},
		{
			"bufferView":7,
			"componentType":5126,
			"count":12,
			"type":"VEC2"
		},
		{
			"bufferView":8,
			"componentType":5126,
			"count":12,
			"type":"VEC4"
		},
		{
			"bufferView":9,
			"componentType":5123,
			"count":18,
			"type":"SCALAR"
		},
		{
			"bufferView":10,
			"componentType":5126,
			"count":76,
			"max":[
				0.9999899864196777,
				9.472723960876465,
				5.350102424621582
			],
			"min":[
				-0.9999899864196777,
				-0.9999899864196777,
				-3.095733165740967
			],
			"type":"VEC3"
		},
		{
			"bufferView":11,
			"componentType":5126,
			"count":76,
			"type":"VEC3"
		},
		{
			"bufferView":12,
			"componentType":5126,
			"count":76,
			"type":"VEC2"
		},
		{
			"bufferView":13,
			"componentType":5126,
			"count":76,
			"type":"VEC4"
		},
		{
			"bufferView":14,
			"componentType":5123,
			"count":180,
			"type":"SCALAR"
		}
	],
	"bufferViews":[
		{
			"buffer":0,
			"byteLength":1908,
			"byteOffset":0,
			"target":34962
		},
		{
			"buffer":0,
			"byteLength":1908,
			"byteOffset":1908,
			"target":34962
		},
		{
			"buffer":0,
			"byteLength":1272,
			"byteOffset":3816,
			"target":34962
		},
		{
			"buffer":0,
			"byteLength":2544,
			"byteOffset":5088,
			"target":34962
		},
		{
			"buffer":0,
			"byteLength":756,
			"byteOffset":7632,
			"target":34963
		},
		{
			"buffer":0,
			"byteLength":144,
			"byteOffset":8388,
			"target":34962
		},
		{
			"buffer":0,
			"byteLength":144,
			"byteOffset":8532,
			"target":34962
		},
		{
			"buffer":0,
			"byteLength":96,
			"byteOffset":8676,
			"target":34962
		},
		{
			"buffer":0,
			"byteLength":192,
			"byteOffset":8772,
			"target":34962
		},
		{
			"buffer":0,
			"byteLength":36,
			"byteOffset":8964,
			"target":34963
		},
		{
			"buffer":0,
			"byteLength":912,
			"byteOffset":9000,
			"target":34962
		},
		{
			"buffer":0,
			"byteLength":912,
			"byteOffset":9912,
			"target":34962
		},
		{
			"buffer":0,
			"byteLength":608,
			"byteOffset":10824,
			"target":34962
		},
		{
			"buffer":0,
			"byteLength":1216,
			"byteOffset":11432,
			"target":34962
		},
		{
			"buffer":0,
			"byteLength":360,
			"byteOffset":12648,
			"target":34963
		}
	],
	"buffers":[
		{
			"byteLength":13008,
			"uri":"level_tutorial-6f3477124d592f1c54dde5e405483359.bin"
		}
	]
}
