{
	"asset":{
		"generator":"Khronos glTF Blender I/O v4.0.44",
		"version":"2.0"
	},
	"scene":0,
	"scenes":[
		{
			"name":"Scene",
			"nodes":[
				0,
				1,
				2
			]
		}
	],
	"nodes":[
		{
			"mesh":0,
			"name":"Cube-col",
			"scale":[
				5.587645053863525,
				0.5723224878311157,
				5.587645053863525
			],
			"translation":[
				-4.229795932769775,
				0.8501307964324951,
				-7.478865623474121
			]
		},
		{
			"mesh":1,
			"name":"Cube.001-col",
			"scale":[
				0.5723224878311157,
				0.5723224878311157,
				0.5723224878311157
			],
			"translation":[
				-9.743252754211426,
				0.2768564522266388,
				-37.168601989746094
			]
		},
		{
			"mesh":2,
			"name":"Cube.002-col",
			"scale":[
				0.5723224878311157,
				0.5723224878311157,
				0.5723224878311157
			],
			"translation":[
				-15.697405815124512,
				0.8217357397079468,
				-7.814007759094238
			]
		}
	],
	"materials":[
		{
			"doubleSided":true,
			"name":"grass.001",
			"pbrMetallicRoughness":{
				"baseColorFactor":[
					0.800000011920929,
					0.800000011920929,
					0.800000011920929,
					1
				],
				"metallicFactor":0,
				"roughnessFactor":0.5
			}
		},
		{
			"doubleSided":true,
			"name":"dirt.001",
			"pbrMetallicRoughness":{
				"baseColorFactor":[
					0.800000011920929,
					0.800000011920929,
					0.800000011920929,
					1
				],
				"metallicFactor":0,
				"roughnessFactor":0.5
			}
		},
		{
			"doubleSided":true,
			"name":"stone",
			"pbrMetallicRoughness":{
				"baseColorFactor":[
					0.800000011920929,
					0.800000011920929,
					0.800000011920929,
					1
				],
				"metallicFactor":0,
				"roughnessFactor":0.5
			}
		},
		{
			"doubleSided":true,
			"name":"grass",
			"pbrMetallicRoughness":{
				"baseColorFactor":[
					0.800000011920929,
					0.800000011920929,
					0.800000011920929,
					1
				],
				"metallicFactor":0,
				"roughnessFactor":0.5
			}
		},
		{
			"doubleSided":true,
			"name":"dirt",
			"pbrMetallicRoughness":{
				"baseColorFactor":[
					0.800000011920929,
					0.800000011920929,
					0.800000011920929,
					1
				],
				"metallicFactor":0,
				"roughnessFactor":0.5
			}
		}
	],
	"meshes":[
		{
			"name":"Cube",
			"primitives":[
				{
					"attributes":{
						"POSITION":0,
						"NORMAL":1,
						"TEXCOORD_0":2,
						"TANGENT":3
					},
					"indices":4,
					"material":0
				},
				{
					"attributes":{
						"POSITION":5,
						"NORMAL":6,
						"TEXCOORD_0":7,
						"TANGENT":8
					},
					"indices":9,
					"material":1
				},
				{
					"attributes":{
						"POSITION":10,
						"NORMAL":11,
						"TEXCOORD_0":12,
						"TANGENT":13
					},
					"indices":14,
					"material":2
				}
			]
		},
		{
			"name":"Cube.001",
			"primitives":[
				{
					"attributes":{
						"POSITION":15,
						"NORMAL":16,
						"TEXCOORD_0":17,
						"TANGENT":18
					},
					"indices":19
				}
			]
		},
		{
			"name":"Cube.003",
			"primitives":[
				{
					"attributes":{
						"POSITION":20,
						"NORMAL":21,
						"TEXCOORD_0":22,
						"TANGENT":23
					},
					"indices":24,
					"material":3
				},
				{
					"attributes":{
						"POSITION":25,
						"NORMAL":26,
						"TEXCOORD_0":27,
						"TANGENT":28
					},
					"indices":29,
					"material":4
				}
			]
		}
	],
	"accessors":[
		{
			"bufferView":0,
			"componentType":5126,
			"count":142,
			"max":[
				1,
				39.45996856689453,
				1
			],
			"min":[
				-1.2219104766845703,
				-7.52248477935791,
				-6.915174961090088
			],
			"type":"VEC3"
		},
		{
			"bufferView":1,
			"componentType":5126,
			"count":142,
			"type":"VEC3"
		},
		{
			"bufferView":2,
			"componentType":5126,
			"count":142,
			"type":"VEC2"
		},
		{
			"bufferView":3,
			"componentType":5126,
			"count":142,
			"type":"VEC4"
		},
		{
			"bufferView":4,
			"componentType":5123,
			"count":312,
			"type":"SCALAR"
		},
		{
			"bufferView":5,
			"componentType":5126,
			"count":109,
			"max":[
				0.9769999980926514,
				39.45996856689453,
				0.9769999980926514
			],
			"min":[
				-1.2219104766845703,
				-7.499485015869141,
				-6.892175197601318
			],
			"type":"VEC3"
		},
		{
			"bufferView":6,
			"componentType":5126,
			"count":109,
			"type":"VEC3"
		},
		{
			"bufferView":7,
			"componentType":5126,
			"count":109,
			"type":"VEC2"
		},
		{
			"bufferView":8,
			"componentType":5126,
			"count":109,
			"type":"VEC4"
		},
		{
			"bufferView":9,
			"componentType":5123,
			"count":198,
			"type":"SCALAR"
		},
		{
			"bufferView":10,
			"componentType":5126,
			"count":12,
			"max":[
				-0.9861999750137329,
				0.9743988513946533,
				-0.3652130365371704
			],
			"min":[
				-1.2219104766845703,
				-0.9769999980926514,
				-0.5371279120445251
			],
			"type":"VEC3"
		},
		{
			"bufferView":11,
			"componentType":5126,
			"count":12,
			"type":"VEC3"
		},
		{
			"bufferView":12,
			"componentType":5126,
			"count":12,
			"type":"VEC2"
		},
		{
			"bufferView":13,
			"componentType":5126,
			"count":12,
			"type":"VEC4"
		},
		{
			"bufferView":14,
			"componentType":5123,
			"count":18,
			"type":"SCALAR"
		},
		{
			"bufferView":15,
			"componentType":5126,
			"count":64,
			"max":[
				20.998332977294922,
				18.307985305786133,
				1
			],
			"min":[
				-1,
				-1,
				-1
			],
			"type":"VEC3"
		},
		{
			"bufferView":16,
			"componentType":5126,
			"count":64,
			"type":"VEC3"
		},
		{
			"bufferView":17,
			"componentType":5126,
			"count":64,
			"type":"VEC2"
		},
		{
			"bufferView":18,
			"componentType":5126,
			"count":64,
			"type":"VEC4"
		},
		{
			"bufferView":19,
			"componentType":5123,
			"count":138,
			"type":"SCALAR"
		},
		{
			"bufferView":20,
			"componentType":5126,
			"count":144,
			"max":[
				33.03409957885742,
				38.05455780029297,
				30.196331024169922
			],
			"min":[
				-14.030280113220215,
				-1,
				-34.11988830566406
			],
			"type":"VEC3"
		},
		{
			"bufferView":21,
			"componentType":5126,
			"count":144,
			"type":"VEC3"
		},
		{
			"bufferView":22,
			"componentType":5126,
			"count":144,
			"type":"VEC2"
		},
		{
			"bufferView":23,
			"componentType":5126,
			"count":144,
			"type":"VEC4"
		},
		{
			"bufferView":24,
			"componentType":5123,
			"count":324,
			"type":"SCALAR"
		},
		{
			"bufferView":25,
			"componentType":5126,
			"count":130,
			"max":[
				32.974632263183594,
				38.05455780029297,
				30.136863708496094
			],
			"min":[
				-13.970812797546387,
				-1,
				-34.11988830566406
			],
			"type":"VEC3"
		},
		{
			"bufferView":26,
			"componentType":5126,
			"count":130,
			"type":"VEC3"
		},
		{
			"bufferView":27,
			"componentType":5126,
			"count":130,
			"type":"VEC2"
		},
		{
			"bufferView":28,
			"componentType":5126,
			"count":130,
			"type":"VEC4"
		},
		{
			"bufferView":29,
			"componentType":5123,
			"count":204,
			"type":"SCALAR"
		}
	],
	"bufferViews":[
		{
			"buffer":0,
			"byteLength":1704,
			"byteOffset":0,
			"target":34962
		},
		{
			"buffer":0,
			"byteLength":1704,
			"byteOffset":1704,
			"target":34962
		},
		{
			"buffer":0,
			"byteLength":1136,
			"byteOffset":3408,
			"target":34962
		},
		{
			"buffer":0,
			"byteLength":2272,
			"byteOffset":4544,
			"target":34962
		},
		{
			"buffer":0,
			"byteLength":624,
			"byteOffset":6816,
			"target":34963
		},
		{
			"buffer":0,
			"byteLength":1308,
			"byteOffset":7440,
			"target":34962
		},
		{
			"buffer":0,
			"byteLength":1308,
			"byteOffset":8748,
			"target":34962
		},
		{
			"buffer":0,
			"byteLength":872,
			"byteOffset":10056,
			"target":34962
		},
		{
			"buffer":0,
			"byteLength":1744,
			"byteOffset":10928,
			"target":34962
		},
		{
			"buffer":0,
			"byteLength":396,
			"byteOffset":12672,
			"target":34963
		},
		{
			"buffer":0,
			"byteLength":144,
			"byteOffset":13068,
			"target":34962
		},
		{
			"buffer":0,
			"byteLength":144,
			"byteOffset":13212,
			"target":34962
		},
		{
			"buffer":0,
			"byteLength":96,
			"byteOffset":13356,
			"target":34962
		},
		{
			"buffer":0,
			"byteLength":192,
			"byteOffset":13452,
			"target":34962
		},
		{
			"buffer":0,
			"byteLength":36,
			"byteOffset":13644,
			"target":34963
		},
		{
			"buffer":0,
			"byteLength":768,
			"byteOffset":13680,
			"target":34962
		},
		{
			"buffer":0,
			"byteLength":768,
			"byteOffset":14448,
			"target":34962
		},
		{
			"buffer":0,
			"byteLength":512,
			"byteOffset":15216,
			"target":34962
		},
		{
			"buffer":0,
			"byteLength":1024,
			"byteOffset":15728,
			"target":34962
		},
		{
			"buffer":0,
			"byteLength":276,
			"byteOffset":16752,
			"target":34963
		},
		{
			"buffer":0,
			"byteLength":1728,
			"byteOffset":17028,
			"target":34962
		},
		{
			"buffer":0,
			"byteLength":1728,
			"byteOffset":18756,
			"target":34962
		},
		{
			"buffer":0,
			"byteLength":1152,
			"byteOffset":20484,
			"target":34962
		},
		{
			"buffer":0,
			"byteLength":2304,
			"byteOffset":21636,
			"target":34962
		},
		{
			"buffer":0,
			"byteLength":648,
			"byteOffset":23940,
			"target":34963
		},
		{
			"buffer":0,
			"byteLength":1560,
			"byteOffset":24588,
			"target":34962
		},
		{
			"buffer":0,
			"byteLength":1560,
			"byteOffset":26148,
			"target":34962
		},
		{
			"buffer":0,
			"byteLength":1040,
			"byteOffset":27708,
			"target":34962
		},
		{
			"buffer":0,
			"byteLength":2080,
			"byteOffset":28748,
			"target":34962
		},
		{
			"buffer":0,
			"byteLength":408,
			"byteOffset":30828,
			"target":34963
		}
	],
	"buffers":[
		{
			"byteLength":31236,
			"uri":"level_4-7211316d7877941ba739a00ecafa790a.bin"
		}
	]
}
