{
	"asset":{
		"generator":"Khronos glTF Blender I/O v4.0.44",
		"version":"2.0"
	},
	"scene":0,
	"scenes":[
		{
			"name":"Scene",
			"nodes":[
				0
			]
		}
	],
	"nodes":[
		{
			"mesh":0,
			"name":"level_-col",
			"scale":[
				11.830975532531738,
				1,
				11.830975532531738
			],
			"translation":[
				0.0027453675866127014,
				1.2889163494110107,
				0.002109886845573783
			]
		}
	],
	"materials":[
		{
			"doubleSided":true,
			"name":"grass",
			"pbrMetallicRoughness":{
				"baseColorFactor":[
					0.4084630608558655,
					0.800070583820343,
					0.45129865407943726,
					1
				],
				"metallicFactor":0,
				"roughnessFactor":0.5
			}
		},
		{
			"doubleSided":true,
			"name":"dirt",
			"pbrMetallicRoughness":{
				"baseColorFactor":[
					0.8000156879425049,
					0.29072535037994385,
					0.2106299102306366,
					1
				],
				"metallicFactor":0,
				"roughnessFactor":0.5
			}
		}
	],
	"meshes":[
		{
			"name":"Cube",
			"primitives":[
				{
					"attributes":{
						"POSITION":0,
						"NORMAL":1,
						"TEXCOORD_0":2,
						"TANGENT":3
					},
					"indices":4,
					"material":0
				},
				{
					"attributes":{
						"POSITION":5,
						"NORMAL":6,
						"TEXCOORD_0":7,
						"TANGENT":8
					},
					"indices":9,
					"material":1
				}
			]
		}
	],
	"accessors":[
		{
			"bufferView":0,
			"componentType":5126,
			"count":88,
			"max":[
				1.0099999904632568,
				8.285499572753906,
				3.2295737266540527
			],
			"min":[
				-1.0099999904632568,
				-4.253298759460449,
				-1.0099999904632568
			],
			"type":"VEC3"
		},
		{
			"bufferView":1,
			"componentType":5126,
			"count":88,
			"type":"VEC3"
		},
		{
			"bufferView":2,
			"componentType":5126,
			"count":88,
			"type":"VEC2"
		},
		{
			"bufferView":3,
			"componentType":5126,
			"count":88,
			"type":"VEC4"
		},
		{
			"bufferView":4,
			"componentType":5123,
			"count":168,
			"type":"SCALAR"
		},
		{
			"bufferView":5,
			"componentType":5126,
			"count":28,
			"max":[
				0.9999899864196777,
				8.285499572753906,
				3.2195637226104736
			],
			"min":[
				-0.9999899864196777,
				-4.243288516998291,
				-0.9999899864196777
			],
			"type":"VEC3"
		},
		{
			"bufferView":6,
			"componentType":5126,
			"count":28,
			"type":"VEC3"
		},
		{
			"bufferView":7,
			"componentType":5126,
			"count":28,
			"type":"VEC2"
		},
		{
			"bufferView":8,
			"componentType":5126,
			"count":28,
			"type":"VEC4"
		},
		{
			"bufferView":9,
			"componentType":5123,
			"count":60,
			"type":"SCALAR"
		}
	],
	"bufferViews":[
		{
			"buffer":0,
			"byteLength":1056,
			"byteOffset":0,
			"target":34962
		},
		{
			"buffer":0,
			"byteLength":1056,
			"byteOffset":1056,
			"target":34962
		},
		{
			"buffer":0,
			"byteLength":704,
			"byteOffset":2112,
			"target":34962
		},
		{
			"buffer":0,
			"byteLength":1408,
			"byteOffset":2816,
			"target":34962
		},
		{
			"buffer":0,
			"byteLength":336,
			"byteOffset":4224,
			"target":34963
		},
		{
			"buffer":0,
			"byteLength":336,
			"byteOffset":4560,
			"target":34962
		},
		{
			"buffer":0,
			"byteLength":336,
			"byteOffset":4896,
			"target":34962
		},
		{
			"buffer":0,
			"byteLength":224,
			"byteOffset":5232,
			"target":34962
		},
		{
			"buffer":0,
			"byteLength":448,
			"byteOffset":5456,
			"target":34962
		},
		{
			"buffer":0,
			"byteLength":120,
			"byteOffset":5904,
			"target":34963
		}
	],
	"buffers":[
		{
			"byteLength":6024,
			"uri":"level_bridge_0-210ed5b115f2720b6e01d1fd2714b607.bin"
		}
	]
}
