{
	"asset":{
		"generator":"Khronos glTF Blender I/O v4.0.44",
		"version":"2.0"
	},
	"scene":0,
	"scenes":[
		{
			"name":"Scene",
			"nodes":[
				0
			]
		}
	],
	"nodes":[
		{
			"mesh":0,
			"name":"Cube.001-col",
			"scale":[
				9.688232421875,
				1,
				9.688232421875
			],
			"translation":[
				95.84065246582031,
				0.9633784294128418,
				22.287796020507812
			]
		}
	],
	"materials":[
		{
			"doubleSided":true,
			"name":"grass",
			"pbrMetallicRoughness":{
				"baseColorFactor":[
					0.800000011920929,
					0.800000011920929,
					0.800000011920929,
					1
				],
				"metallicFactor":0,
				"roughnessFactor":0.5
			}
		},
		{
			"doubleSided":true,
			"name":"dirt",
			"pbrMetallicRoughness":{
				"baseColorFactor":[
					0.800000011920929,
					0.800000011920929,
					0.800000011920929,
					1
				],
				"metallicFactor":0,
				"roughnessFactor":0.5
			}
		}
	],
	"meshes":[
		{
			"name":"Cube.004",
			"primitives":[
				{
					"attributes":{
						"POSITION":0,
						"NORMAL":1,
						"TEXCOORD_0":2,
						"TANGENT":3
					},
					"indices":4,
					"material":0
				},
				{
					"attributes":{
						"POSITION":5,
						"NORMAL":6,
						"TEXCOORD_0":7,
						"TANGENT":8
					},
					"indices":9,
					"material":1
				}
			]
		}
	],
	"accessors":[
		{
			"bufferView":0,
			"componentType":5126,
			"count":626,
			"max":[
				1.1032179594039917,
				34.96240234375,
				3.1775946617126465
			],
			"min":[
				-2.7547059059143066,
				-7.962400436401367,
				-6.274134635925293
			],
			"type":"VEC3"
		},
		{
			"bufferView":1,
			"componentType":5126,
			"count":626,
			"type":"VEC3"
		},
		{
			"bufferView":2,
			"componentType":5126,
			"count":626,
			"type":"VEC2"
		},
		{
			"bufferView":3,
			"componentType":5126,
			"count":626,
			"type":"VEC4"
		},
		{
			"bufferView":4,
			"componentType":5123,
			"count":1572,
			"type":"SCALAR"
		},
		{
			"bufferView":5,
			"componentType":5126,
			"count":27,
			"max":[
				1,
				18.962400436401367,
				1.2164525985717773
			],
			"min":[
				-2.666970729827881,
				-6.962400436401367,
				-2.455068588256836
			],
			"type":"VEC3"
		},
		{
			"bufferView":6,
			"componentType":5126,
			"count":27,
			"type":"VEC3"
		},
		{
			"bufferView":7,
			"componentType":5126,
			"count":27,
			"type":"VEC2"
		},
		{
			"bufferView":8,
			"componentType":5126,
			"count":27,
			"type":"VEC4"
		},
		{
			"bufferView":9,
			"componentType":5123,
			"count":48,
			"type":"SCALAR"
		}
	],
	"bufferViews":[
		{
			"buffer":0,
			"byteLength":7512,
			"byteOffset":0,
			"target":34962
		},
		{
			"buffer":0,
			"byteLength":7512,
			"byteOffset":7512,
			"target":34962
		},
		{
			"buffer":0,
			"byteLength":5008,
			"byteOffset":15024,
			"target":34962
		},
		{
			"buffer":0,
			"byteLength":10016,
			"byteOffset":20032,
			"target":34962
		},
		{
			"buffer":0,
			"byteLength":3144,
			"byteOffset":30048,
			"target":34963
		},
		{
			"buffer":0,
			"byteLength":324,
			"byteOffset":33192,
			"target":34962
		},
		{
			"buffer":0,
			"byteLength":324,
			"byteOffset":33516,
			"target":34962
		},
		{
			"buffer":0,
			"byteLength":216,
			"byteOffset":33840,
			"target":34962
		},
		{
			"buffer":0,
			"byteLength":432,
			"byteOffset":34056,
			"target":34962
		},
		{
			"buffer":0,
			"byteLength":96,
			"byteOffset":34488,
			"target":34963
		}
	],
	"buffers":[
		{
			"byteLength":34584,
			"uri":"testthing-d9b278bc2d933480d6d39332b0a182a7.bin"
		}
	]
}
